<mxfile host="app.diagrams.net" modified="2023-04-11T11:09:18.199Z" agent="Mozilla/5.0 (Windows NT 10.0; Win64; x64) AppleWebKit/537.36 (KHTML, like Gecko) Chrome/111.0.0.0 Safari/537.36" etag="ybh0ZJtwRp6qZ_SJdq-8" version="21.1.5" type="github">
  <diagram name="Page-1" id="OXNfdeW2UjNv4_Qj5ahb">
    <mxGraphModel dx="1837" dy="1803" grid="1" gridSize="10" guides="1" tooltips="1" connect="1" arrows="1" fold="1" page="1" pageScale="1" pageWidth="1600" pageHeight="900" math="0" shadow="0">
      <root>
        <mxCell id="0" />
        <mxCell id="1" parent="0" />
        <mxCell id="oNK4x6GtnWRanjDO5cXN-74" value="" style="endArrow=none;html=1;rounded=0;strokeColor=#009900;strokeWidth=3;" edge="1" parent="1">
          <mxGeometry width="50" height="50" relative="1" as="geometry">
            <mxPoint x="264" y="-140" as="sourcePoint" />
            <mxPoint x="263.98" y="-681" as="targetPoint" />
          </mxGeometry>
        </mxCell>
        <mxCell id="oNK4x6GtnWRanjDO5cXN-73" value="" style="rounded=1;whiteSpace=wrap;html=1;fillColor=#fff2cc;strokeColor=#d6b656;" vertex="1" parent="1">
          <mxGeometry x="178" y="-742" width="164.25" height="60" as="geometry" />
        </mxCell>
        <mxCell id="oNK4x6GtnWRanjDO5cXN-2" value="" style="rounded=1;whiteSpace=wrap;html=1;" vertex="1" parent="1">
          <mxGeometry x="526" y="-833" width="184" height="60" as="geometry" />
        </mxCell>
        <mxCell id="oNK4x6GtnWRanjDO5cXN-1" value="&lt;b&gt;&lt;font style=&quot;font-size: 23px;&quot;&gt;DASHBOARD Micro Service&lt;/font&gt;&lt;/b&gt;" style="text;html=1;strokeColor=none;fillColor=none;align=center;verticalAlign=middle;whiteSpace=wrap;rounded=0;" vertex="1" parent="1">
          <mxGeometry x="539" y="-820" width="158" height="30" as="geometry" />
        </mxCell>
        <mxCell id="oNK4x6GtnWRanjDO5cXN-4" value="Travel Requisition" style="rounded=0;whiteSpace=wrap;html=1;" vertex="1" parent="1">
          <mxGeometry x="204" y="-545" width="120" height="50" as="geometry" />
        </mxCell>
        <mxCell id="oNK4x6GtnWRanjDO5cXN-5" value="Reports" style="rounded=0;whiteSpace=wrap;html=1;" vertex="1" parent="1">
          <mxGeometry x="204" y="-385" width="120" height="50" as="geometry" />
        </mxCell>
        <mxCell id="oNK4x6GtnWRanjDO5cXN-6" value="Expense Capture" style="rounded=0;whiteSpace=wrap;html=1;" vertex="1" parent="1">
          <mxGeometry x="204" y="-465" width="120" height="50" as="geometry" />
        </mxCell>
        <mxCell id="oNK4x6GtnWRanjDO5cXN-7" value="Approval Travel Requisition" style="rounded=0;whiteSpace=wrap;html=1;" vertex="1" parent="1">
          <mxGeometry x="204" y="-305" width="120" height="50" as="geometry" />
        </mxCell>
        <mxCell id="oNK4x6GtnWRanjDO5cXN-8" value="Approval Expense Report" style="rounded=0;whiteSpace=wrap;html=1;" vertex="1" parent="1">
          <mxGeometry x="204" y="-225" width="120" height="50" as="geometry" />
        </mxCell>
        <mxCell id="oNK4x6GtnWRanjDO5cXN-10" value="Employee&amp;nbsp;&lt;br&gt;Settlement" style="rounded=0;whiteSpace=wrap;html=1;" vertex="1" parent="1">
          <mxGeometry x="204" y="-145" width="120" height="50" as="geometry" />
        </mxCell>
        <mxCell id="oNK4x6GtnWRanjDO5cXN-16" value="" style="endArrow=none;dashed=1;html=1;rounded=0;" edge="1" parent="1">
          <mxGeometry width="50" height="50" relative="1" as="geometry">
            <mxPoint x="153" y="-369" as="sourcePoint" />
            <mxPoint x="153" y="-609" as="targetPoint" />
          </mxGeometry>
        </mxCell>
        <mxCell id="oNK4x6GtnWRanjDO5cXN-19" value="" style="endArrow=classic;html=1;rounded=0;" edge="1" parent="1">
          <mxGeometry width="50" height="50" relative="1" as="geometry">
            <mxPoint x="153" y="-368.66999999999996" as="sourcePoint" />
            <mxPoint x="197" y="-368.3399999999999" as="targetPoint" />
          </mxGeometry>
        </mxCell>
        <mxCell id="oNK4x6GtnWRanjDO5cXN-25" value="" style="endArrow=none;dashed=1;html=1;rounded=0;" edge="1" parent="1" source="oNK4x6GtnWRanjDO5cXN-36">
          <mxGeometry width="50" height="50" relative="1" as="geometry">
            <mxPoint x="97" y="-207" as="sourcePoint" />
            <mxPoint x="97" y="-607" as="targetPoint" />
          </mxGeometry>
        </mxCell>
        <mxCell id="oNK4x6GtnWRanjDO5cXN-27" value="" style="endArrow=none;dashed=1;html=1;rounded=0;" edge="1" parent="1">
          <mxGeometry width="50" height="50" relative="1" as="geometry">
            <mxPoint x="53" y="-127" as="sourcePoint" />
            <mxPoint x="53" y="-605" as="targetPoint" />
          </mxGeometry>
        </mxCell>
        <mxCell id="oNK4x6GtnWRanjDO5cXN-28" value="" style="endArrow=classic;html=1;rounded=0;" edge="1" parent="1">
          <mxGeometry width="50" height="50" relative="1" as="geometry">
            <mxPoint x="98" y="-207.66999999999996" as="sourcePoint" />
            <mxPoint x="193" y="-208" as="targetPoint" />
          </mxGeometry>
        </mxCell>
        <mxCell id="oNK4x6GtnWRanjDO5cXN-29" value="" style="endArrow=classic;html=1;rounded=0;" edge="1" parent="1">
          <mxGeometry width="50" height="50" relative="1" as="geometry">
            <mxPoint x="53" y="-128" as="sourcePoint" />
            <mxPoint x="194" y="-128" as="targetPoint" />
          </mxGeometry>
        </mxCell>
        <mxCell id="oNK4x6GtnWRanjDO5cXN-30" value="" style="endArrow=classic;html=1;rounded=0;" edge="1" parent="1">
          <mxGeometry width="50" height="50" relative="1" as="geometry">
            <mxPoint x="52" y="-605" as="sourcePoint" />
            <mxPoint x="193" y="-605" as="targetPoint" />
          </mxGeometry>
        </mxCell>
        <mxCell id="oNK4x6GtnWRanjDO5cXN-35" value="Empolyee" style="rounded=0;whiteSpace=wrap;html=1;rotation=-90;" vertex="1" parent="1">
          <mxGeometry x="101.25" y="-493.25" width="103.5" height="20" as="geometry" />
        </mxCell>
        <mxCell id="oNK4x6GtnWRanjDO5cXN-37" value="" style="endArrow=none;dashed=1;html=1;rounded=0;" edge="1" parent="1" target="oNK4x6GtnWRanjDO5cXN-36">
          <mxGeometry width="50" height="50" relative="1" as="geometry">
            <mxPoint x="97" y="-207" as="sourcePoint" />
            <mxPoint x="97" y="-607" as="targetPoint" />
          </mxGeometry>
        </mxCell>
        <mxCell id="oNK4x6GtnWRanjDO5cXN-36" value="Manager" style="rounded=0;whiteSpace=wrap;html=1;rotation=-90;" vertex="1" parent="1">
          <mxGeometry x="23" y="-473.25" width="143.5" height="20" as="geometry" />
        </mxCell>
        <mxCell id="oNK4x6GtnWRanjDO5cXN-38" value="Finance Department" style="rounded=0;whiteSpace=wrap;html=1;rotation=-90;" vertex="1" parent="1">
          <mxGeometry x="-17" y="-473.25" width="143.5" height="20" as="geometry" />
        </mxCell>
        <mxCell id="oNK4x6GtnWRanjDO5cXN-39" value="Finance Department" style="rounded=0;whiteSpace=wrap;html=1;rotation=0;" vertex="1" parent="1">
          <mxGeometry x="59" y="-138" width="120" height="20" as="geometry" />
        </mxCell>
        <mxCell id="oNK4x6GtnWRanjDO5cXN-41" value="Manager" style="rounded=0;whiteSpace=wrap;html=1;rotation=0;" vertex="1" parent="1">
          <mxGeometry x="104" y="-217" width="73" height="19" as="geometry" />
        </mxCell>
        <mxCell id="oNK4x6GtnWRanjDO5cXN-42" value="Actor" style="shape=umlActor;verticalLabelPosition=bottom;verticalAlign=top;html=1;outlineConnect=0;" vertex="1" parent="1">
          <mxGeometry x="96.5" y="-692" width="30" height="60" as="geometry" />
        </mxCell>
        <mxCell id="oNK4x6GtnWRanjDO5cXN-44" value="Travel Requisition&lt;br&gt;(M S)" style="rounded=0;whiteSpace=wrap;html=1;" vertex="1" parent="1">
          <mxGeometry x="423" y="-682" width="100" height="37" as="geometry" />
        </mxCell>
        <mxCell id="oNK4x6GtnWRanjDO5cXN-45" value="" style="endArrow=none;dashed=1;html=1;rounded=0;entryX=0.5;entryY=1;entryDx=0;entryDy=0;" edge="1" parent="1" target="oNK4x6GtnWRanjDO5cXN-44">
          <mxGeometry width="50" height="50" relative="1" as="geometry">
            <mxPoint x="473" y="-105" as="sourcePoint" />
            <mxPoint x="493" y="-575" as="targetPoint" />
          </mxGeometry>
        </mxCell>
        <mxCell id="oNK4x6GtnWRanjDO5cXN-46" value="" style="endArrow=classic;html=1;rounded=0;" edge="1" parent="1">
          <mxGeometry width="50" height="50" relative="1" as="geometry">
            <mxPoint x="324" y="-534" as="sourcePoint" />
            <mxPoint x="473" y="-534" as="targetPoint" />
          </mxGeometry>
        </mxCell>
        <mxCell id="oNK4x6GtnWRanjDO5cXN-47" value="&lt;b&gt;&lt;font color=&quot;#1a1a1a&quot;&gt;Travel Requisition Request&lt;/font&gt;&lt;/b&gt;" style="text;html=1;strokeColor=none;fillColor=none;align=center;verticalAlign=middle;whiteSpace=wrap;rounded=0;" vertex="1" parent="1">
          <mxGeometry x="333" y="-565" width="123" height="30" as="geometry" />
        </mxCell>
        <mxCell id="oNK4x6GtnWRanjDO5cXN-50" value="" style="endArrow=classic;html=1;rounded=0;dashed=1;" edge="1" parent="1">
          <mxGeometry width="50" height="50" relative="1" as="geometry">
            <mxPoint x="473" y="-505" as="sourcePoint" />
            <mxPoint x="325" y="-505" as="targetPoint" />
          </mxGeometry>
        </mxCell>
        <mxCell id="oNK4x6GtnWRanjDO5cXN-51" value="&lt;b&gt;Request Submitted Succesfully&lt;/b&gt;" style="text;html=1;strokeColor=none;fillColor=none;align=center;verticalAlign=middle;whiteSpace=wrap;rounded=0;" vertex="1" parent="1">
          <mxGeometry x="329" y="-504" width="139" height="30" as="geometry" />
        </mxCell>
        <mxCell id="oNK4x6GtnWRanjDO5cXN-52" value="Support&lt;br&gt;(M S)" style="rounded=0;whiteSpace=wrap;html=1;" vertex="1" parent="1">
          <mxGeometry x="619" y="-681.5" width="100" height="37" as="geometry" />
        </mxCell>
        <mxCell id="oNK4x6GtnWRanjDO5cXN-53" value="" style="endArrow=none;dashed=1;html=1;rounded=0;entryX=0.5;entryY=1;entryDx=0;entryDy=0;" edge="1" parent="1">
          <mxGeometry width="50" height="50" relative="1" as="geometry">
            <mxPoint x="670" y="-106" as="sourcePoint" />
            <mxPoint x="670" y="-646" as="targetPoint" />
          </mxGeometry>
        </mxCell>
        <mxCell id="oNK4x6GtnWRanjDO5cXN-54" value="" style="endArrow=classic;html=1;rounded=0;exitX=1;exitY=0.25;exitDx=0;exitDy=0;" edge="1" parent="1">
          <mxGeometry width="50" height="50" relative="1" as="geometry">
            <mxPoint x="324" y="-614.5000000000002" as="sourcePoint" />
            <mxPoint x="659" y="-615" as="targetPoint" />
          </mxGeometry>
        </mxCell>
        <mxCell id="oNK4x6GtnWRanjDO5cXN-55" value="Employee&amp;nbsp;&lt;br&gt;Settlement" style="rounded=0;whiteSpace=wrap;html=1;" vertex="1" parent="1">
          <mxGeometry x="204.75" y="-145" width="120" height="53" as="geometry" />
        </mxCell>
        <mxCell id="oNK4x6GtnWRanjDO5cXN-57" value="Travel Requisition" style="rounded=0;whiteSpace=wrap;html=1;" vertex="1" parent="1">
          <mxGeometry x="204.75" y="-545" width="120" height="53" as="geometry" />
        </mxCell>
        <mxCell id="oNK4x6GtnWRanjDO5cXN-58" value="Expense Capture" style="rounded=0;whiteSpace=wrap;html=1;" vertex="1" parent="1">
          <mxGeometry x="204.75" y="-465" width="120" height="53" as="geometry" />
        </mxCell>
        <mxCell id="oNK4x6GtnWRanjDO5cXN-59" value="Reports" style="rounded=0;whiteSpace=wrap;html=1;" vertex="1" parent="1">
          <mxGeometry x="204.75" y="-385" width="120" height="53" as="geometry" />
        </mxCell>
        <mxCell id="oNK4x6GtnWRanjDO5cXN-60" value="Travel Approval&amp;nbsp; Requisition" style="rounded=0;whiteSpace=wrap;html=1;" vertex="1" parent="1">
          <mxGeometry x="204.75" y="-305" width="120" height="53" as="geometry" />
        </mxCell>
        <mxCell id="oNK4x6GtnWRanjDO5cXN-61" value="Approval Expense Report" style="rounded=0;whiteSpace=wrap;html=1;" vertex="1" parent="1">
          <mxGeometry x="204.75" y="-225" width="120" height="53" as="geometry" />
        </mxCell>
        <mxCell id="oNK4x6GtnWRanjDO5cXN-62" value="Raise a Ticket" style="rounded=0;whiteSpace=wrap;html=1;" vertex="1" parent="1">
          <mxGeometry x="204" y="-632" width="120" height="53" as="geometry" />
        </mxCell>
        <mxCell id="oNK4x6GtnWRanjDO5cXN-64" value="&lt;b&gt;Submit a Ticket&lt;/b&gt;" style="text;html=1;strokeColor=none;fillColor=none;align=center;verticalAlign=middle;whiteSpace=wrap;rounded=0;" vertex="1" parent="1">
          <mxGeometry x="362" y="-646" width="60" height="30" as="geometry" />
        </mxCell>
        <mxCell id="oNK4x6GtnWRanjDO5cXN-67" value="" style="endArrow=classic;html=1;rounded=0;dashed=1;elbow=vertical;" edge="1" parent="1">
          <mxGeometry width="50" height="50" relative="1" as="geometry">
            <mxPoint x="671" y="-593" as="sourcePoint" />
            <mxPoint x="330" y="-593" as="targetPoint" />
          </mxGeometry>
        </mxCell>
        <mxCell id="oNK4x6GtnWRanjDO5cXN-69" value="&lt;b&gt;Ticket has been assigned for resolution&lt;/b&gt;" style="text;html=1;strokeColor=none;fillColor=none;align=center;verticalAlign=middle;whiteSpace=wrap;rounded=0;" vertex="1" parent="1">
          <mxGeometry x="489" y="-590" width="141" height="30" as="geometry" />
        </mxCell>
        <mxCell id="oNK4x6GtnWRanjDO5cXN-72" value="&lt;span style=&quot;font-size: 23px;&quot;&gt;&lt;b&gt;&lt;font color=&quot;#4d9900&quot;&gt;Dashboard Menu&lt;/font&gt;&lt;/b&gt;&lt;/span&gt;" style="text;html=1;strokeColor=none;fillColor=none;align=center;verticalAlign=middle;whiteSpace=wrap;rounded=0;" vertex="1" parent="1">
          <mxGeometry x="183" y="-725" width="158" height="30" as="geometry" />
        </mxCell>
        <mxCell id="oNK4x6GtnWRanjDO5cXN-75" value="Expense&lt;br&gt;Capture(M S)" style="rounded=0;whiteSpace=wrap;html=1;" vertex="1" parent="1">
          <mxGeometry x="820" y="-682" width="100" height="37" as="geometry" />
        </mxCell>
        <mxCell id="oNK4x6GtnWRanjDO5cXN-76" value="" style="endArrow=none;dashed=1;html=1;rounded=0;entryX=0.5;entryY=1;entryDx=0;entryDy=0;" edge="1" parent="1">
          <mxGeometry width="50" height="50" relative="1" as="geometry">
            <mxPoint x="871" y="-107" as="sourcePoint" />
            <mxPoint x="871" y="-647" as="targetPoint" />
          </mxGeometry>
        </mxCell>
        <mxCell id="oNK4x6GtnWRanjDO5cXN-77" value="" style="endArrow=classic;html=1;rounded=0;exitX=1;exitY=0.25;exitDx=0;exitDy=0;" edge="1" parent="1">
          <mxGeometry width="50" height="50" relative="1" as="geometry">
            <mxPoint x="324.75" y="-450.0000000000003" as="sourcePoint" />
            <mxPoint x="865.75" y="-449.79" as="targetPoint" />
          </mxGeometry>
        </mxCell>
        <mxCell id="oNK4x6GtnWRanjDO5cXN-78" value="&lt;b&gt;Uploaded the Expense Successfully through OCR or Manual Form&lt;/b&gt;" style="text;html=1;strokeColor=none;fillColor=none;align=center;verticalAlign=middle;whiteSpace=wrap;rounded=0;" vertex="1" parent="1">
          <mxGeometry x="500" y="-490" width="140" height="35" as="geometry" />
        </mxCell>
        <mxCell id="oNK4x6GtnWRanjDO5cXN-80" value="Expense&lt;br&gt;Approval (M S)" style="rounded=0;whiteSpace=wrap;html=1;" vertex="1" parent="1">
          <mxGeometry x="1013" y="-683" width="100" height="37" as="geometry" />
        </mxCell>
        <mxCell id="oNK4x6GtnWRanjDO5cXN-81" value="" style="endArrow=none;dashed=1;html=1;rounded=0;entryX=0.5;entryY=1;entryDx=0;entryDy=0;" edge="1" parent="1">
          <mxGeometry width="50" height="50" relative="1" as="geometry">
            <mxPoint x="1062.44" y="-108" as="sourcePoint" />
            <mxPoint x="1062.44" y="-648" as="targetPoint" />
          </mxGeometry>
        </mxCell>
        <mxCell id="oNK4x6GtnWRanjDO5cXN-83" value="" style="endArrow=classic;html=1;rounded=0;" edge="1" parent="1">
          <mxGeometry width="50" height="50" relative="1" as="geometry">
            <mxPoint x="870" y="-450" as="sourcePoint" />
            <mxPoint x="1060" y="-450" as="targetPoint" />
          </mxGeometry>
        </mxCell>
        <mxCell id="oNK4x6GtnWRanjDO5cXN-84" value="&lt;b&gt;Pushed the Expense Report for Approval to Finance &amp;amp; Manager&lt;/b&gt;" style="text;html=1;strokeColor=none;fillColor=none;align=center;verticalAlign=middle;whiteSpace=wrap;rounded=0;" vertex="1" parent="1">
          <mxGeometry x="784.5" y="-490" width="185.5" height="40" as="geometry" />
        </mxCell>
        <mxCell id="oNK4x6GtnWRanjDO5cXN-90" value="" style="endArrow=classic;html=1;rounded=0;dashed=1;elbow=vertical;" edge="1" parent="1">
          <mxGeometry width="50" height="50" relative="1" as="geometry">
            <mxPoint x="1060" y="-416.25" as="sourcePoint" />
            <mxPoint x="330" y="-416" as="targetPoint" />
          </mxGeometry>
        </mxCell>
        <mxCell id="oNK4x6GtnWRanjDO5cXN-93" value="&lt;b&gt;Request has been processed to Finance &amp;amp; Manger .&lt;/b&gt;" style="text;html=1;strokeColor=none;fillColor=none;align=center;verticalAlign=middle;whiteSpace=wrap;rounded=0;" vertex="1" parent="1">
          <mxGeometry x="500" y="-409" width="161" height="30" as="geometry" />
        </mxCell>
        <mxCell id="oNK4x6GtnWRanjDO5cXN-94" value="Travel&amp;nbsp;&lt;br&gt;Approval (M S)" style="rounded=0;whiteSpace=wrap;html=1;" vertex="1" parent="1">
          <mxGeometry x="1200" y="-681.5" width="100" height="37" as="geometry" />
        </mxCell>
        <mxCell id="oNK4x6GtnWRanjDO5cXN-95" value="Employee Settlement (M S)" style="rounded=0;whiteSpace=wrap;html=1;" vertex="1" parent="1">
          <mxGeometry x="1390" y="-683" width="100" height="37" as="geometry" />
        </mxCell>
        <mxCell id="oNK4x6GtnWRanjDO5cXN-96" value="Report (M S)" style="rounded=0;whiteSpace=wrap;html=1;" vertex="1" parent="1">
          <mxGeometry x="1580" y="-681.5" width="100" height="37" as="geometry" />
        </mxCell>
        <mxCell id="oNK4x6GtnWRanjDO5cXN-97" value="Resolve Ticketing&lt;br&gt;(MS )" style="rounded=0;whiteSpace=wrap;html=1;" vertex="1" parent="1">
          <mxGeometry x="1770" y="-682" width="100" height="37" as="geometry" />
        </mxCell>
        <mxCell id="oNK4x6GtnWRanjDO5cXN-98" value="" style="endArrow=none;dashed=1;html=1;rounded=0;entryX=0.5;entryY=1;entryDx=0;entryDy=0;" edge="1" parent="1">
          <mxGeometry width="50" height="50" relative="1" as="geometry">
            <mxPoint x="1250" y="-106" as="sourcePoint" />
            <mxPoint x="1250" y="-646" as="targetPoint" />
          </mxGeometry>
        </mxCell>
        <mxCell id="oNK4x6GtnWRanjDO5cXN-99" value="" style="endArrow=none;dashed=1;html=1;rounded=0;entryX=0.5;entryY=1;entryDx=0;entryDy=0;" edge="1" parent="1">
          <mxGeometry width="50" height="50" relative="1" as="geometry">
            <mxPoint x="1439.23" y="-104.5" as="sourcePoint" />
            <mxPoint x="1439.23" y="-644.5" as="targetPoint" />
          </mxGeometry>
        </mxCell>
        <mxCell id="oNK4x6GtnWRanjDO5cXN-100" value="" style="endArrow=none;dashed=1;html=1;rounded=0;entryX=0.5;entryY=1;entryDx=0;entryDy=0;" edge="1" parent="1">
          <mxGeometry width="50" height="50" relative="1" as="geometry">
            <mxPoint x="1620" y="-105" as="sourcePoint" />
            <mxPoint x="1620" y="-645" as="targetPoint" />
          </mxGeometry>
        </mxCell>
        <mxCell id="oNK4x6GtnWRanjDO5cXN-101" value="" style="endArrow=none;dashed=1;html=1;rounded=0;entryX=0.5;entryY=1;entryDx=0;entryDy=0;" edge="1" parent="1">
          <mxGeometry width="50" height="50" relative="1" as="geometry">
            <mxPoint x="1819.23" y="-104.5" as="sourcePoint" />
            <mxPoint x="1819.23" y="-644.5" as="targetPoint" />
          </mxGeometry>
        </mxCell>
        <mxCell id="oNK4x6GtnWRanjDO5cXN-102" value="" style="endArrow=classic;html=1;rounded=0;" edge="1" parent="1">
          <mxGeometry width="50" height="50" relative="1" as="geometry">
            <mxPoint x="324" y="-269.27" as="sourcePoint" />
            <mxPoint x="1239.25" y="-270" as="targetPoint" />
          </mxGeometry>
        </mxCell>
      </root>
    </mxGraphModel>
  </diagram>
</mxfile>
